<svg viewBox="0 0 347.2 94.013" xmlns="http://www.w3.org/2000/svg">
    <path
        pathLength="1"
        fill-rule="evenodd"
        d="M 90.3 68.113 Q 85.9 68.113 82.95 65.963 Q 80 63.813 80 59.713 Q 80 55.313 82.1 51.513 Q 84.2 47.713 87.7 44.863 Q 91.2 42.013 95.35 40.413 Q 99.5 38.813 103.6 38.813 Q 107.7 38.813 109.7 40.263 Q 111.7 41.713 111.7 43.813 Q 111.7 45.813 109.85 48.063 Q 108 50.313 104.5 52.013 Q 102.3 53.013 99.45 53.763 Q 96.6 54.513 94.5 54.513 Q 92.9 54.513 92.9 54.013 Q 92.9 53.613 94.3 53.613 Q 95.6 53.613 98.35 52.863 Q 101.1 52.113 103.7 50.813 Q 106.6 49.213 107.8 47.613 Q 109 46.013 109 44.713 Q 109 43.513 108.05 42.713 Q 107.1 41.913 105.4 41.913 Q 103.8 41.913 101.8 42.813 Q 98.9 44.113 95.85 47.063 Q 92.8 50.013 90.8 53.513 Q 88.8 57.013 88.8 60.213 Q 88.8 62.413 90.05 63.913 Q 91.3 65.413 93.8 65.413 Q 96.4 65.413 99.8 63.763 Q 103.2 62.113 106.7 59.663 Q 110.2 57.213 113.2 54.713 A 172.319 172.319 0 0 0 114.625 53.513 A 120.948 120.948 0 0 0 115.446 52.808 A 266.129 266.129 0 0 0 115.668 52.605 Q 117.317 51.09 119.15 49.363 Q 122.6 46.113 124.2 42.713 Q 124.7 41.513 124.7 40.513 Q 124.7 39.213 124.2 38.913 Q 123.8 38.613 123.8 38.113 Q 123.8 37.213 124.7 37.213 Q 125.2 37.213 125.5 37.413 Q 126.6 37.913 127.6 39.313 Q 128.6 40.713 128.6 43.513 Q 128.6 45.113 128.2 47.163 Q 127.8 49.213 126.8 51.813 Q 128.3 49.813 129.85 47.913 Q 131.4 46.013 132.7 44.513 Q 135.4 41.413 138.15 40.063 Q 140.9 38.713 143.1 38.713 Q 145.7 38.713 147.3 40.213 Q 148.9 41.713 148.9 44.113 Q 148.9 46.013 147.9 48.013 Q 147.6 48.813 146.5 50.463 Q 145.4 52.113 144.1 54.013 Q 142.8 55.913 141.7 57.413 Q 140.4 59.013 139.9 60.163 Q 139.4 61.313 139.4 62.013 Q 139.4 63.013 140.5 63.013 Q 141.9 63.013 144.4 61.513 Q 145.9 60.613 147.85 59.063 Q 149.8 57.513 151.75 55.863 Q 153.7 54.213 154.9 53.113 Q 155.103 52.91 155.28 52.81 A 0.787 0.787 0 0 1 155.363 52.768 A 21.627 21.627 0 0 0 155.659 52.497 Q 156.438 51.776 157.75 50.463 Q 159.5 48.713 161 46.513 Q 162.5 44.313 162.5 42.513 Q 162.5 41.313 161.3 40.813 Q 161.1 40.713 161.1 40.513 Q 161.1 39.813 161.9 39.813 Q 163.9 39.813 165 41.263 Q 166.1 42.713 166.1 45.213 Q 166.1 48.013 164.9 51.863 Q 163.7 55.713 161.7 59.913 Q 159.7 64.113 157.4 68.113 Q 155.1 72.113 152.95 75.263 Q 150.8 78.413 149.2 80.113 Q 145.7 83.813 140.9 87.013 Q 136.1 90.213 130.75 92.113 Q 125.4 94.013 120.1 94.013 Q 115.3 94.013 110.9 92.613 Q 106.5 91.213 103.7 88.063 Q 100.9 84.913 100.9 79.713 L 100.9 79.513 Q 100.9 78.913 101.3 78.913 Q 101.7 78.913 101.9 79.613 Q 103 85.213 107.3 88.713 Q 111.6 92.213 117.2 92.213 Q 120.7 92.213 124.9 90.263 Q 129.1 88.313 133.4 84.913 Q 137.7 81.513 141.8 77.213 Q 145.9 72.913 149.3 68.213 Q 150.5 66.613 152.6 63.463 Q 154.7 60.313 156.95 56.513 Q 159.2 52.713 160.7 49.313 Q 160.2 49.813 159.1 50.863 Q 158 51.913 157 52.913 Q 156 53.913 155.4 54.413 Q 155.357 54.457 155.323 54.481 A 0.251 0.251 0 0 1 155.31 54.49 A 142.299 142.299 0 0 1 152.371 57.143 Q 150.587 58.712 148.55 60.413 Q 144.6 63.713 140.8 65.513 Q 137.7 67.013 135.1 67.013 Q 132.9 67.013 131.6 65.863 Q 130.3 64.713 130.3 62.513 Q 130.3 60.913 131.1 58.713 Q 132.1 56.013 133.95 53.313 Q 135.8 50.613 137.85 48.163 Q 139.9 45.713 141.4 44.013 Q 142.7 42.613 142.7 41.613 Q 142.7 40.713 141.5 40.713 Q 140.3 40.713 137.95 42.063 Q 135.6 43.413 132.7 46.413 Q 128.6 50.713 125.5 55.713 Q 122.4 60.713 118.4 65.113 Q 116.2 67.613 114.1 67.613 Q 113.1 67.613 111.7 67.163 Q 110.3 66.713 108.9 65.513 Q 110 64.013 112.05 61.463 Q 114.1 58.913 116.4 55.813 Q 118.7 52.713 120.7 49.613 Q 119.1 51.213 117.2 53.013 Q 115.3 54.813 113.4 56.313 A 1.474 1.474 0 0 1 113.069 56.566 A 330.195 330.195 0 0 1 110.35 58.913 Q 105.9 62.713 100.85 65.363 Q 95.8 68.013 90.3 68.113 Z M 8.4 73.713 Q 9.1 72.413 10.85 68.913 Q 12.6 65.413 15 60.463 Q 17.4 55.513 20.05 49.663 Q 22.7 43.813 25.05 37.663 Q 27.4 31.513 29.1 25.713 Q 29.9 23.013 30.25 20.663 Q 30.6 18.313 30.6 16.313 Q 30.6 11.613 28.8 9.113 Q 27 6.613 24.1 6.613 Q 20.8 6.613 16.55 10.063 Q 12.3 13.513 8 20.913 Q 5.3 25.513 3.55 30.613 Q 1.8 35.713 1.5 40.513 Q 1.4 41.413 1.05 41.713 Q 0.7 42.013 0.5 41.313 Q 0 39.813 0 37.713 Q 0 34.713 0.75 31.013 Q 1.5 27.313 2.9 23.663 Q 4.3 20.013 6.1 17.313 Q 8.7 13.513 12.5 10.513 Q 16.3 7.513 20.5 5.813 Q 24.7 4.113 28.5 4.113 Q 33.2 4.113 36.3 7.113 Q 39.4 10.113 39.4 17.113 Q 39.4 21.413 38.4 26.963 Q 37.4 32.513 35 39.613 Q 39.5 32.913 45.35 26.813 Q 51.2 20.713 56.7 16.713 Q 60.8 13.713 63.8 12.363 Q 66.8 11.013 68.9 11.013 Q 72.1 11.013 73.45 13.763 Q 74.8 16.513 74.8 20.913 Q 74.8 25.213 73.8 30.663 Q 72.8 36.113 71.2 41.713 Q 69.6 47.313 67.8 52.213 Q 71.9 45.713 76.85 38.563 Q 81.8 31.413 87.15 24.613 Q 92.5 17.813 97.95 12.363 Q 103.4 6.913 108.5 3.813 Q 111 2.313 114.25 1.163 Q 117.5 0.013 120.2 0.013 Q 123.2 0.013 124.5 1.713 L 124.7 2.113 Q 124.7 2.513 124.2 2.513 L 123.2 2.513 Q 119 2.213 113.8 5.163 Q 108.6 8.113 102.95 13.413 Q 97.3 18.713 91.65 25.313 Q 86 31.913 80.65 38.963 Q 75.3 46.013 70.75 52.563 Q 66.2 59.113 62.8 64.213 Q 62.6 64.613 60.65 65.513 Q 58.7 66.413 56.3 67.313 Q 53.9 68.213 52.2 68.663 Q 50.5 69.113 50.7 68.713 Q 51.4 67.013 53.1 63.163 Q 54.8 59.313 57.05 53.813 Q 59.3 48.313 61.5 41.713 Q 63.7 35.113 65.5 27.913 Q 66.4 24.013 66.4 21.613 Q 66.4 17.213 63.5 17.213 Q 61.1 17.213 57.2 20.063 Q 53.3 22.913 48.7 27.713 Q 44.1 32.513 39.35 38.513 Q 34.6 44.513 30.4 50.813 Q 28.3 55.713 26 60.413 Q 23.7 65.113 21.2 69.213 Q 20.9 69.613 18.85 70.513 Q 16.8 71.413 14.3 72.313 Q 11.8 73.213 10 73.663 Q 8.2 74.113 8.4 73.713 Z M 244.5 76.613 Q 244.2 76.613 244.2 76.213 Q 244.2 75.513 244.9 74.513 Q 249.4 68.413 256.3 60.013 Q 263.2 51.613 271.5 42.713 Q 269.6 37.713 268.7 32.463 Q 267.8 27.213 267.8 22.613 Q 267.8 19.013 268.35 16.063 Q 268.9 13.113 269.9 11.313 Q 270.4 10.413 271.9 9.513 Q 273.4 8.613 275.2 8.063 Q 277 7.513 278.2 7.513 Q 279.8 7.513 279.8 8.413 Q 279.8 8.813 279.3 9.613 Q 278 11.713 277.35 15.013 Q 276.7 18.313 276.7 22.313 Q 276.7 28.613 278.1 35.813 Q 285.2 28.613 292.85 22.113 Q 300.5 15.613 308.25 10.563 Q 316 5.513 323.55 2.663 Q 331.1 -0.187 338 0.013 Q 338.4 0.013 338.35 0.413 Q 338.3 0.813 337.9 0.813 Q 333.7 0.713 327.95 3.163 Q 322.2 5.613 315.5 9.913 Q 308.8 14.213 301.7 19.913 Q 296 24.413 290.25 29.463 Q 284.5 34.513 279 39.813 Q 280.6 46.013 282.95 51.713 Q 285.3 57.413 288.05 61.413 Q 290.8 65.413 293.4 66.913 Q 295.7 68.113 298.1 68.113 Q 299.6 68.113 300.9 67.613 Q 302.2 67.113 303 66.113 Q 303.2 65.913 303.4 65.913 Q 303.6 65.913 303.75 66.163 Q 303.9 66.413 303.7 66.713 Q 302.2 68.613 300.4 69.063 Q 298.6 69.513 296.3 69.513 Q 291.9 69.513 287.55 66.263 Q 283.2 63.013 279.4 57.613 Q 275.6 52.213 272.8 45.913 Q 266.8 51.813 261.55 57.413 Q 256.3 63.013 252.35 67.613 Q 248.4 72.213 246.1 75.313 Q 245.2 76.613 244.5 76.613 Z M 177.2 67.213 Q 173.1 67.213 171.65 65.463 Q 170.2 63.713 170.2 61.513 Q 170.2 59.713 170.8 58.063 Q 171.4 56.413 171.8 55.713 Q 172.4 54.713 173.45 53.413 Q 174.5 52.113 175.8 50.613 Q 173.8 52.313 172.05 53.913 Q 170.3 55.513 169.2 56.313 Q 168.9 56.613 168.6 56.613 Q 168.2 56.613 168.2 56.113 Q 168.2 55.313 169.3 54.513 Q 171.9 52.313 174.35 49.713 Q 176.8 47.113 179 44.863 Q 181.2 42.613 182.9 41.713 Q 184.7 40.713 185.8 40.413 Q 186.9 40.113 187.6 40.113 Q 188.7 40.113 189.2 40.463 Q 189.7 40.813 189.4 41.213 Q 187.7 42.913 186.05 45.563 Q 184.4 48.213 183 51.113 Q 181.6 54.013 180.75 56.613 Q 179.9 59.213 179.9 61.013 Q 179.9 63.513 181.9 63.513 Q 183.8 63.513 186.85 61.763 Q 189.9 60.013 193.25 57.313 A 162.967 162.967 0 0 0 197.833 53.484 A 140.222 140.222 0 0 0 198.518 52.885 A 16.682 16.682 0 0 1 199.2 51.513 Q 201.3 47.713 204.8 44.863 Q 208.3 42.013 212.45 40.413 Q 216.6 38.813 220.7 38.813 Q 224.8 38.813 226.8 40.263 Q 228.8 41.713 228.8 43.813 Q 228.8 45.813 226.95 48.063 Q 225.1 50.313 221.6 52.013 Q 219.4 53.013 216.55 53.763 Q 213.7 54.513 211.6 54.513 Q 210 54.513 210 54.013 Q 210 53.613 211.4 53.613 Q 212.7 53.613 215.45 52.863 Q 218.2 52.113 220.8 50.813 Q 223.7 49.213 224.9 47.613 Q 226.1 46.013 226.1 44.713 Q 226.1 43.513 225.15 42.713 Q 224.2 41.913 222.5 41.913 Q 220.9 41.913 218.9 42.813 Q 216 44.113 212.95 47.063 Q 209.9 50.013 207.9 53.513 Q 205.9 57.013 205.9 60.213 Q 205.9 62.413 207.15 63.913 Q 208.4 65.413 210.9 65.413 Q 213.5 65.413 216.9 63.763 Q 220.3 62.113 223.8 59.663 Q 227.3 57.213 230.3 54.713 Q 233.3 52.213 235.1 50.513 Q 235.7 49.913 236 49.913 Q 236.3 49.913 236.3 50.413 Q 236.3 51.113 235.7 51.613 Q 231.9 55.113 227.45 58.913 Q 223 62.713 217.95 65.363 Q 212.9 68.013 207.4 68.113 Q 203 68.113 200.05 65.963 Q 197.1 63.813 197.1 59.713 A 16.682 16.682 0 0 1 197.639 55.408 A 118.476 118.476 0 0 1 196.519 56.38 A 151.323 151.323 0 0 1 193.05 59.263 Q 188.9 62.613 184.75 64.913 Q 180.6 67.213 177.2 67.213 Z M 331.3 71.013 Q 330 70.513 328.75 69.213 Q 327.5 67.913 327.5 64.713 Q 327.5 62.013 328.4 59.063 Q 329.3 56.113 330.7 53.213 Q 328.1 56.513 325.05 59.713 Q 322 62.913 318.95 64.963 Q 315.9 67.013 313.3 67.013 Q 311.1 67.013 309.65 65.813 Q 308.2 64.613 308.2 62.113 Q 308.2 60.313 308.9 58.213 Q 309.6 56.113 311.4 53.513 Q 313.2 50.913 315.35 48.363 Q 317.5 45.813 319.1 44.013 Q 320.2 42.713 320.2 41.913 Q 320.2 40.913 319.1 40.913 Q 317.9 40.913 315.7 42.513 Q 313.4 44.213 310.8 46.663 Q 308.2 49.113 305.9 51.363 Q 303.6 53.613 302 54.913 Q 301.7 55.213 301.4 55.213 Q 300.9 55.213 300.9 54.613 Q 300.9 54.113 301.8 53.313 Q 306.2 49.513 309.1 46.363 Q 312 43.213 314.8 41.013 Q 316.3 39.813 317.9 39.263 Q 319.5 38.713 320.9 38.713 Q 323.3 38.713 324.9 40.113 Q 326.5 41.513 326.5 44.013 Q 326.5 45.913 325.5 48.013 Q 324.4 50.513 322.55 52.963 Q 320.7 55.413 319 57.713 Q 317.7 59.613 317.1 60.813 Q 316.5 62.013 316.5 62.613 Q 316.5 63.413 317.3 63.413 Q 318.1 63.413 319.6 62.513 Q 321.1 61.613 322.7 60.213 Q 323.8 59.213 324.65 58.363 L 325.9 57.113 Q 328.2 54.713 330.5 51.963 Q 332.8 49.213 334.5 46.913 Q 335.8 45.213 336.55 44.313 Q 337.3 43.413 338.2 42.413 Q 339.9 40.513 341.8 40.413 Q 342.9 40.413 344.35 40.863 Q 345.8 41.313 347.2 42.613 Q 346.2 44.013 344.25 46.463 Q 342.3 48.913 340.05 51.863 Q 337.8 54.813 335.75 57.913 Q 333.7 61.013 332.4 63.713 Q 331.1 66.413 331.1 68.413 Q 331.1 69.813 331.9 70.613 Q 332.3 71.013 331.9 71.063 Q 331.5 71.113 331.3 71.013 Z M 192.5 36.513 Q 191.1 36.513 190.4 35.613 Q 189.7 34.713 189.7 33.713 Q 189.7 31.713 191.6 29.763 Q 193.5 27.813 195.6 27.813 Q 197 27.813 197.7 28.713 Q 198.4 29.613 198.4 30.613 Q 198.4 32.713 196.55 34.613 Q 194.7 36.513 192.5 36.513 Z M 168 36.513 Q 166.6 36.513 165.9 35.613 Q 165.2 34.713 165.2 33.713 Q 165.2 31.713 167.1 29.763 Q 169 27.813 171.1 27.813 Q 172.5 27.813 173.2 28.713 Q 173.9 29.613 173.9 30.613 Q 173.9 32.713 172.05 34.613 Q 170.2 36.513 168 36.513 Z"
    />
</svg>